<mxfile host="app.diagrams.net" modified="2024-03-08T02:42:53.422Z" agent="Mozilla/5.0 (Windows NT 10.0; Win64; x64) AppleWebKit/537.36 (KHTML, like Gecko) Chrome/122.0.0.0 Safari/537.36" etag="4cDT4HgNQIEO3kbNwEw0" version="24.0.2" type="github">
  <diagram name="第 1 页" id="dWHVXCupxFyxyCDDonvM">
    <mxGraphModel dx="1195" dy="658" grid="1" gridSize="10" guides="1" tooltips="1" connect="1" arrows="1" fold="1" page="1" pageScale="1" pageWidth="827" pageHeight="1169" math="0" shadow="0">
      <root>
        <mxCell id="0" />
        <mxCell id="1" parent="0" />
        <mxCell id="wBdWloMdQGU26tyETxLE-1" value="PC &amp;amp; Debuuger" style="rounded=0;whiteSpace=wrap;html=1;fontSize=14;fontStyle=1" vertex="1" parent="1">
          <mxGeometry x="180" y="220" width="120" height="60" as="geometry" />
        </mxCell>
        <mxCell id="wBdWloMdQGU26tyETxLE-2" value="" style="rounded=0;whiteSpace=wrap;html=1;fontSize=14;" vertex="1" parent="1">
          <mxGeometry x="140" y="320" width="550" height="410" as="geometry" />
        </mxCell>
        <mxCell id="wBdWloMdQGU26tyETxLE-3" value="&lt;font style=&quot;font-size: 14px;&quot;&gt;Chip&lt;/font&gt;" style="text;html=1;align=center;verticalAlign=middle;resizable=0;points=[];autosize=1;strokeColor=none;fillColor=none;fontStyle=1" vertex="1" parent="1">
          <mxGeometry x="140" y="320" width="50" height="30" as="geometry" />
        </mxCell>
        <mxCell id="wBdWloMdQGU26tyETxLE-4" value="" style="rounded=0;whiteSpace=wrap;html=1;fontSize=14;" vertex="1" parent="1">
          <mxGeometry x="160" y="394.5" width="330" height="295.5" as="geometry" />
        </mxCell>
        <mxCell id="wBdWloMdQGU26tyETxLE-5" value="&lt;font style=&quot;font-size: 14px;&quot;&gt;ICUMHA&lt;/font&gt;" style="text;html=1;align=center;verticalAlign=middle;resizable=0;points=[];autosize=1;strokeColor=none;fillColor=none;fontStyle=1" vertex="1" parent="1">
          <mxGeometry x="160" y="394.5" width="80" height="30" as="geometry" />
        </mxCell>
        <mxCell id="wBdWloMdQGU26tyETxLE-6" value="CPU (PE)" style="rounded=0;whiteSpace=wrap;html=1;fontSize=14;" vertex="1" parent="1">
          <mxGeometry x="540" y="394.5" width="130" height="125.5" as="geometry" />
        </mxCell>
        <mxCell id="wBdWloMdQGU26tyETxLE-7" value="Communication Registers" style="rounded=0;whiteSpace=wrap;html=1;fontSize=14;align=left;" vertex="1" parent="1">
          <mxGeometry x="170" y="430" width="140" height="60" as="geometry" />
        </mxCell>
        <mxCell id="wBdWloMdQGU26tyETxLE-8" value="ICUP" style="rounded=0;whiteSpace=wrap;html=1;fontSize=14;" vertex="1" parent="1">
          <mxGeometry x="350" y="424.5" width="124" height="95.5" as="geometry" />
        </mxCell>
        <mxCell id="wBdWloMdQGU26tyETxLE-9" value="Debug I/F Control Registers" style="rounded=0;whiteSpace=wrap;html=1;fontSize=14;align=left;" vertex="1" parent="1">
          <mxGeometry x="352" y="570" width="120" height="60" as="geometry" />
        </mxCell>
        <mxCell id="wBdWloMdQGU26tyETxLE-10" value="C&amp;amp;R authentication firmware running on ICUP" style="rounded=0;html=1;fontSize=14;labelBackgroundColor=none;fillColor=#f5f5f5;strokeColor=#666666;gradientColor=none;whiteSpace=wrap;" vertex="1" parent="1">
          <mxGeometry x="170" y="540" width="140" height="120" as="geometry" />
        </mxCell>
        <mxCell id="wBdWloMdQGU26tyETxLE-11" value="" style="endArrow=classic;startArrow=classic;html=1;rounded=0;exitX=0.5;exitY=0;exitDx=0;exitDy=0;entryX=0.5;entryY=1;entryDx=0;entryDy=0;" edge="1" parent="1" source="wBdWloMdQGU26tyETxLE-10" target="wBdWloMdQGU26tyETxLE-7">
          <mxGeometry width="50" height="50" relative="1" as="geometry">
            <mxPoint x="390" y="430" as="sourcePoint" />
            <mxPoint x="440" y="380" as="targetPoint" />
          </mxGeometry>
        </mxCell>
        <mxCell id="wBdWloMdQGU26tyETxLE-12" value="" style="endArrow=classic;startArrow=classic;html=1;rounded=0;exitX=1;exitY=0.5;exitDx=0;exitDy=0;entryX=0;entryY=0.5;entryDx=0;entryDy=0;" edge="1" parent="1" source="wBdWloMdQGU26tyETxLE-10" target="wBdWloMdQGU26tyETxLE-9">
          <mxGeometry width="50" height="50" relative="1" as="geometry">
            <mxPoint x="250" y="550" as="sourcePoint" />
            <mxPoint x="250" y="500" as="targetPoint" />
          </mxGeometry>
        </mxCell>
        <mxCell id="wBdWloMdQGU26tyETxLE-13" value="" style="endArrow=classic;html=1;rounded=0;entryX=0.5;entryY=1;entryDx=0;entryDy=0;" edge="1" parent="1" source="wBdWloMdQGU26tyETxLE-9" target="wBdWloMdQGU26tyETxLE-8">
          <mxGeometry width="50" height="50" relative="1" as="geometry">
            <mxPoint x="360" y="630" as="sourcePoint" />
            <mxPoint x="410" y="580" as="targetPoint" />
          </mxGeometry>
        </mxCell>
        <mxCell id="wBdWloMdQGU26tyETxLE-14" value="Debug I/F lock signal" style="text;html=1;align=center;verticalAlign=middle;resizable=0;points=[];autosize=1;strokeColor=none;fillColor=none;" vertex="1" parent="1">
          <mxGeometry x="440" y="527.25" width="140" height="30" as="geometry" />
        </mxCell>
        <mxCell id="wBdWloMdQGU26tyETxLE-15" value="" style="edgeStyle=segmentEdgeStyle;endArrow=classic;html=1;curved=0;rounded=0;endSize=8;startSize=8;exitX=1;exitY=0.5;exitDx=0;exitDy=0;" edge="1" parent="1" source="wBdWloMdQGU26tyETxLE-9" target="wBdWloMdQGU26tyETxLE-6">
          <mxGeometry width="50" height="50" relative="1" as="geometry">
            <mxPoint x="360" y="570" as="sourcePoint" />
            <mxPoint x="410" y="520" as="targetPoint" />
          </mxGeometry>
        </mxCell>
        <mxCell id="wBdWloMdQGU26tyETxLE-16" value="" style="shape=doubleArrow;direction=south;whiteSpace=wrap;html=1;gradientColor=none;fillStyle=solid;fillColor=#B3B3B3;strokeColor=#B3B3B3;" vertex="1" parent="1">
          <mxGeometry x="220" y="280" width="40" height="150" as="geometry" />
        </mxCell>
        <mxCell id="wBdWloMdQGU26tyETxLE-19" value="" style="html=1;shadow=0;dashed=0;align=center;verticalAlign=middle;shape=mxgraph.arrows2.bendArrow;dy=6.67;dx=16.33;notch=0;arrowHead=38.33;rounded=0;direction=south;fillColor=#B3B3B3;strokeColor=#B3B3B3;" vertex="1" parent="1">
          <mxGeometry x="246" y="332.5" width="374" height="60.5" as="geometry" />
        </mxCell>
        <mxCell id="wBdWloMdQGU26tyETxLE-20" value="" style="html=1;shadow=0;dashed=0;align=center;verticalAlign=middle;shape=mxgraph.arrows2.arrow;dy=0.59;dx=15.5;direction=south;notch=0;strokeColor=#B3B3B3;fillColor=#B3B3B3;" vertex="1" parent="1">
          <mxGeometry x="390" y="344" width="31" height="80" as="geometry" />
        </mxCell>
      </root>
    </mxGraphModel>
  </diagram>
</mxfile>
